<?xml version="1.0" encoding="iso-8859-1"?>
<!-- Uploaded to: SVG Repo, www.svgrepo.com, Generator: SVG Repo Mixer Tools -->
<svg height="800px" width="800px" version="1.1" id="Layer_1" xmlns="http://www.w3.org/2000/svg" xmlns:xlink="http://www.w3.org/1999/xlink" 
	 viewBox="0 0 512 512" xml:space="preserve">
<path style="fill:#DFDFE0;" d="M256,366.191l85.227-63.484l44.17-113.506c27.119-69.689-5.825-148.338-74.515-177.896l0,0
	c-35.035-15.075-74.729-15.075-109.764,0l0,0c-68.69,29.558-101.634,108.206-74.515,177.896l44.17,113.506L256,366.191z"/>
<path style="fill:#CECED1;" d="M256,366.191l85.227-63.484l44.17-113.506c27.119-69.689-5.825-148.338-74.515-177.896l0,0
	C293.364,3.769,274.682,0,256,0C256,31.165,256,366.191,256,366.191z"/>
<g>
	<path style="fill:#9B9BA1;" d="M374.935,67.198c-6.842-11.375-15.339-21.816-25.321-30.925l-36.192,115.813l31.872,9.958
		L374.935,67.198z"/>
	<path style="fill:#9B9BA1;" d="M318.034,14.633c-2.341-1.166-4.722-2.281-7.152-3.327l0,0c-8.117-3.493-16.485-6.165-24.987-8.04
		l-12.99,94.178l33.079,4.563L318.034,14.633z"/>
</g>
<g>
	<path style="fill:#CECED1;" d="M137.065,67.198l29.639,94.848l31.872-9.958L162.385,36.273
		C152.405,45.382,143.907,55.822,137.065,67.198z"/>
	<path style="fill:#CECED1;" d="M201.118,11.306c-2.431,1.046-4.813,2.16-7.154,3.327l12.052,87.374l33.079-4.563l-12.99-94.177
		C217.603,5.141,209.236,7.814,201.118,11.306L201.118,11.306z"/>
</g>
<path style="fill:#C0369E;" d="M305.987,512h-99.974c-19.463,0-35.241-15.777-35.241-35.241V302.708h170.455v174.051
	C341.227,496.221,325.449,512,305.987,512z"/>
<path style="fill:#8B2975;" d="M305.987,512H256c0-38.957,0-209.292,0-209.292h85.227v174.051
	C341.227,496.221,325.449,512,305.987,512z"/>
</svg>