<?xml version="1.0" encoding="iso-8859-1"?>
<!-- Uploaded to: SVG Repo, www.svgrepo.com, Generator: SVG Repo Mixer Tools -->
<svg height="800px" width="800px" version="1.1" id="Layer_1" xmlns="http://www.w3.org/2000/svg" xmlns:xlink="http://www.w3.org/1999/xlink" 
	 viewBox="0 0 512 512" xml:space="preserve">
<path style="fill:#4AD0FF;" d="M487.396,44.578C487.396,19.959,467.437,0,442.818,0H69.182C44.563,0,24.604,19.959,24.604,44.578
	v422.843c0,24.621,19.959,44.579,44.578,44.579h373.636c24.619,0,44.578-19.959,44.578-44.578V44.578z"/>
<path style="fill:#99E5FF;" d="M256.586,0H69.182C44.563,0,24.604,19.959,24.604,44.578v422.843
	c0,24.621,19.959,44.579,44.578,44.579h187.404V0z"/>
<path style="fill:#2C6991;" d="M487.396,44.578C487.396,19.959,467.437,0,442.818,0H69.182C44.563,0,24.604,19.959,24.604,44.578
	v76.099h462.792V44.578z"/>
<path style="fill:#528FB3;" d="M256.586,0H69.182C44.563,0,24.604,19.959,24.604,44.578v76.099h231.982V0z"/>
<path style="fill:#CCCCCC;" d="M176.915,87.872H99.588c-9.706,0-17.574-7.869-17.574-17.574s7.869-17.574,17.574-17.574h77.327
	c9.706,0,17.574,7.869,17.574,17.574S186.621,87.872,176.915,87.872z"/>
<path style="fill:#E1E1E1;" d="M140.595,87.872H99.588c-9.706,0-17.574-7.869-17.574-17.574s7.869-17.574,17.574-17.574h41.007
	V87.872z"/>
<circle style="fill:#FB5858;" cx="350.105" cy="69.571" r="20.338"/>
<path style="fill:#FF835D;" d="M350.101,89.903c-11.232,0-20.338-9.106-20.338-20.338s9.106-20.338,20.338-20.338V89.903z"/>
<path style="fill:#E1E1E1;" d="M398.352,347.973c-9.706,0-17.574-7.869-17.574-17.574v-44.522c0-9.706,7.869-17.574,17.574-17.574
	c9.706,0,17.574,7.869,17.574,17.574v44.522C415.927,340.104,408.058,347.973,398.352,347.973z"/>
<circle style="fill:#CCCCCC;" cx="406.858" cy="69.571" r="20.338"/>
<path style="fill:#E1E1E1;" d="M406.856,89.903c-11.232,0-20.338-9.106-20.338-20.338s9.106-20.338,20.338-20.338V89.903z"/>
<circle style="fill:#16A5D9;" cx="256.844" cy="308.137" r="137.408"/>
<path style="fill:#4AD0FF;" d="M256.849,445.54c-75.885,0-137.402-61.517-137.402-137.402s61.517-137.402,137.402-137.402V445.54z"
	/>
<circle style="fill:#CCCCCC;" cx="256.844" cy="308.137" r="72.91"/>
<path style="fill:#F5F4F5;" d="M256.849,381.052c-40.27,0-72.915-32.645-72.915-72.915s32.645-72.915,72.915-72.915V381.052z"/>
</svg>